<svg width="331" height="332" viewBox="0 0 331 332" fill="none" xmlns="http://www.w3.org/2000/svg">
<path d="M9.69939 219.974L219.83 9.84655" stroke="#C7C7C7"/>
<path d="M12.0673 225.654L225.659 12.0671" stroke="#C7C7C7"/>
<path d="M14.5826 231.188L231.401 14.374" stroke="#C7C7C7"/>
<path d="M17.0978 237.225L237.229 17.0976" stroke="#C7C7C7"/>
<path d="M20.1162 243.261L243.266 20.1159" stroke="#C7C7C7"/>
<path d="M23.1346 248.292L248.505 22.9258" stroke="#C7C7C7"/>
<path d="M26.1529 253.53L253.535 26.1524" stroke="#C7C7C7"/>
<path d="M29.6742 259.064L259.069 29.6738" stroke="#C7C7C7"/>
<path d="M33.1957 263.591L264.099 32.6921" stroke="#C7C7C7"/>
<path d="M36.7172 268.622L269.13 36.2134" stroke="#C7C7C7"/>
<path d="M41.2446 273.652L273.657 41.2439" stroke="#C7C7C7"/>
<path d="M45.2691 278.683L278.688 45.2683" stroke="#C7C7C7"/>
<path d="M49.7967 283.21L283.216 49.7957" stroke="#C7C7C7"/>
<path d="M54.8271 287.126L288.246 53.7114" stroke="#C7C7C7"/>
<path d="M58.3486 291.762L291.768 58.3476" stroke="#C7C7C7"/>
<path d="M316.92 100.812L100.102 317.626" stroke="#C7C7C7"/>
<path d="M314.405 94.7754L94.2741 314.902" stroke="#C7C7C7"/>
<path d="M311.387 88.7389L88.2374 311.884" stroke="#C7C7C7"/>
<path d="M308.368 83.7083L82.9984 309.074" stroke="#C7C7C7"/>
<path d="M305.35 78.4695L77.9678 305.848" stroke="#C7C7C7"/>
<path d="M301.829 72.9359L72.4343 302.326" stroke="#C7C7C7"/>
<path d="M298.307 68.4084L67.4037 299.308" stroke="#C7C7C7"/>
<path d="M294.786 63.378L62.3731 295.786" stroke="#C7C7C7"/>
<path d="M7.83449 213.79L213.941 7.68694" stroke="#C7C7C7"/>
<path d="M6.03064 207.753L207.757 6.03046" stroke="#C7C7C7"/>
<path d="M4.81612 201.716L201.72 4.81599" stroke="#C7C7C7"/>
<path d="M3.80998 195.68L195.978 3.51501" stroke="#C7C7C7"/>
<path d="M2.50912 189.14L189.144 2.50911" stroke="#C7C7C7"/>
<path d="M1.50296 182.098L181.598 2.00614" stroke="#C7C7C7"/>
<path d="M1 175.055L175.058 1.00001" stroke="#C7C7C7"/>
<path d="M1 167.006L167.009 0.999945" stroke="#C7C7C7"/>
<path d="M1 158.957L158.96 0.999988" stroke="#C7C7C7"/>
<path d="M1.50296 150.405L150.408 1.50298" stroke="#C7C7C7"/>
<path d="M2.00613 142.357L141.856 2.50912" stroke="#C7C7C7"/>
<path d="M4.52142 131.793L131.795 4.52139" stroke="#C7C7C7"/>
<path d="M7.03668 121.732L121.231 7.53966" stroke="#C7C7C7"/>
<path d="M9.55197 112.174L111.673 10.0549" stroke="#C7C7C7"/>
<path d="M13.5764 101.61L101.109 14.0793" stroke="#C7C7C7"/>
<path d="M20.1162 88.5304L88.029 20.6189" stroke="#C7C7C7"/>
<path d="M30.1774 72.4329L72.9373 29.6738" stroke="#C7C7C7"/>
<path d="M39.2324 57.3414L53.8211 42.753" stroke="#C7C7C7"/>
<line y1="-0.5" x2="295.953" y2="-0.5" transform="matrix(-0.707113 0.7071 -0.707113 -0.7071 320.945 111.671)" stroke="#C7C7C7"/>
<path d="M319.644 105.634L105.341 319.933" stroke="#C7C7C7"/>
<path d="M323.165 118.21L117.059 324.313" stroke="#C7C7C7"/>
<path d="M324.969 124.247L123.243 325.969" stroke="#C7C7C7"/>
<path d="M326.184 130.283L129.28 327.184" stroke="#C7C7C7"/>
<path d="M327.19 136.32L135.022 328.485" stroke="#C7C7C7"/>
<path d="M328.491 142.86L141.856 329.491" stroke="#C7C7C7"/>
<path d="M329.497 149.902L149.402 329.994" stroke="#C7C7C7"/>
<path d="M330 156.945L155.942 331" stroke="#C7C7C7"/>
<path d="M330 164.994L163.991 331" stroke="#C7C7C7"/>
<path d="M330 173.043L172.04 331" stroke="#C7C7C7"/>
<path d="M329.497 181.594L180.592 330.497" stroke="#C7C7C7"/>
<path d="M328.994 189.643L189.144 329.491" stroke="#C7C7C7"/>
<path d="M326.478 200.207L199.205 327.479" stroke="#C7C7C7"/>
<path d="M323.963 210.268L209.769 324.46" stroke="#C7C7C7"/>
<path d="M321.448 219.826L219.327 321.945" stroke="#C7C7C7"/>
<path d="M317.424 230.39L229.891 317.921" stroke="#C7C7C7"/>
<path d="M310.884 243.469L242.971 311.381" stroke="#C7C7C7"/>
<path d="M300.823 259.567L258.063 302.326" stroke="#C7C7C7"/>
<path d="M291.768 274.658L277.179 289.247" stroke="#C7C7C7"/>
</svg>
